<svg xmlns="http://www.w3.org/2000/svg" viewBox="0 0 48 48" fill="currentColor" stroke="currentColor" stroke-width="3.5" stroke-linecap="round" stroke-linejoin="round">
  <g opacity="0.55" fill="none">
    <path d="M20 15L18 29L25 35L21 43L28 43"/>
    <path d="M40 42C44 34 43 26 38 22M38.8 25.9L38 22L42 21.9" stroke-width="2.5"/>
    <path d="M5 46H43" stroke-width="2.5"/>
  </g>
  <g opacity="0.55" fill="currentColor">
    <circle cx="18" cy="8" r="3.5" stroke="none"/>
  </g>
  <g stroke="none">
    <path fill-rule="evenodd" d="M22 15a7 7 0 1 0 14 0a7 7 0 1 0 -14 0ZM27 15a2 2 0 1 1 4 0a2 2 0 1 1 -4 0Z"/>
  </g>
</svg>
